<?xml version="1.0" encoding="UTF-8" standalone="no"?>
<svg width="24px" height="21px" viewBox="0 0 24 21" version="1.1" xmlns="http://www.w3.org/2000/svg" xmlns:xlink="http://www.w3.org/1999/xlink">
    <!-- Generator: sketchtool 40.3 (33839) - http://www.bohemiancoding.com/sketch -->
    <title>4FAC87F0-55CA-40D1-948B-677BD17CA78C</title>
    <desc>Created with sketchtool.</desc>
    <defs>
        <path d="M10,0 C4.47654802,0 0,4.47654802 0,10 C0,15.523452 4.47654802,20 10,20 C15.5229009,20 20,15.5231698 20,10 C20,4.47683022 15.5229009,0 10,0 Z" id="path-1"></path>
        <mask id="mask-2" maskContentUnits="userSpaceOnUse" maskUnits="objectBoundingBox" x="0" y="0" width="20" height="20" fill="white">
            <use xlink:href="#path-1"></use>
        </mask>
    </defs>
    <g id="Page-1" stroke="none" stroke-width="1" fill="none" fill-rule="evenodd">
        <g id="Microflow-Rendering-Copy" transform="translate(-461.000000, -595.000000)">
            <g id="Activities" transform="translate(440.000000, 50.000000)">
                <g id="Variable-activities" transform="translate(1.000000, 454.000000)">
                    <g id="Change-Variable-Activity" transform="translate(0.000000, 71.000000)">
                        <g id="icon" transform="translate(20.000000, 20.000000)">
                            <use id="Stroke-2175" stroke="#0595DB" mask="url(#mask-2)" stroke-width="2" fill="#FFFFFF" xlink:href="#path-1"></use>
                            <path d="M4.68087179,12.1923077 L7.806,15.3174359 L14.4358974,8.55158974 L14.4358974,5.56410256 L11.3051282,5.56805128 L4.68087179,12.1923077 Z M7.80769231,16 C7.73266667,16 7.66102564,15.9701026 7.6085641,15.917641 L4.08292308,12.392 C3.97235897,12.2814359 3.97235897,12.1031795 4.08292308,11.9926154 L10.9886667,5.08687179 C11.0411282,5.03441026 11.1127692,5.00451282 11.1877949,5.00451282 L14.7179487,5 C14.7924103,5 14.8646154,5.02989744 14.9170769,5.08235897 C14.9701026,5.13538462 15,5.20702564 15,5.28205128 L15,8.66666667 C15,8.7405641 14.9712308,8.81107692 14.9193333,8.86410256 L8.00907692,15.9153846 C7.95605128,15.9695385 7.86015385,15.9847692 7.80769231,16 L7.80769231,16 Z" id="Fill-1265" fill="#0595DB"></path>
                            <path d="M12,9 C11.4485,9 11,8.5515 11,8 C11,7.4485 11.4485,7 12,7 C12.5515,7 13,7.4485 13,8 C13,8.5515 12.5515,9 12,9" id="Fill-1266" fill="#0595DB"></path>
                            <g id="Fill-620" transform="translate(10.000000, 8.000000)">
                                <path d="M7.24595833,0.00368333333 C3.66175,0.00368333333 0.745958333,2.919475 0.745958333,6.50368333 C0.745958333,10.08735 3.66175,13.0036833 7.24595833,13.0036833 C10.829625,13.0036833 13.7459583,10.08735 13.7459583,6.50368333 C13.7459583,2.919475 10.829625,0.00368333333 7.24595833,0.00368333333 L7.24595833,0.00368333333 Z" fill="#888888"></path>
                                <path d="M3.59079167,9.802975 L4.66816667,7.28801667 L6.46108333,9.08093333 L3.946125,10.15885 C3.912,10.173475 3.87570833,10.1810583 3.83941667,10.1810583 C3.769,10.1810583 3.69966667,10.1534333 3.64820833,10.1014333 C3.56966667,10.0234333 3.54691667,9.90480833 3.59079167,9.802975 L3.59079167,9.802975 Z" id="Path" fill="#FFFFFF"></path>
                                <path d="M6.8955,8.74943333 L4.99045833,6.84385 L8.40079167,3.43351667 C8.40404167,3.43676667 8.405125,3.44164167 8.408375,3.44489167 L10.3139583,5.350475 L6.90308333,8.76080833 C6.900375,8.75755833 6.89929167,8.75268333 6.8955,8.74943333 L6.8955,8.74943333 Z" id="Path" fill="#FFFFFF"></path>
                                <path d="M8.79133333,3.06193333 C8.78808333,3.05868333 8.78320833,3.0576 8.77995833,3.05435 L9.584875,2.24943333 C9.63579167,2.19851667 9.70458333,2.17035 9.77608333,2.17035 C9.848125,2.17035 9.91691667,2.19851667 9.96783333,2.24943333 L11.4996667,3.78180833 C11.6058333,3.88743333 11.6058333,4.0586 11.4996667,4.16476667 L10.6969167,4.96751667 L8.79133333,3.06193333 Z" id="Path" fill="#FFFFFF"></path>
                            </g>
                        </g>
                    </g>
                </g>
            </g>
        </g>
    </g>
</svg>