<?xml version="1.0" encoding="UTF-8" standalone="no"?>
<svg width="24px" height="21px" viewBox="0 0 24 21" version="1.1" xmlns="http://www.w3.org/2000/svg" xmlns:xlink="http://www.w3.org/1999/xlink">
    <!-- Generator: sketchtool 40.2 (33826) - http://www.bohemiancoding.com/sketch -->
    <title>34BF5106-0B75-4C41-A029-A6847E7346E3</title>
    <desc>Created with sketchtool.</desc>
    <defs>
        <path d="M10,0 C4.47654802,0 0,4.47654802 0,10 C0,15.523452 4.47654802,20 10,20 C15.5229009,20 20,15.5231698 20,10 C20,4.47683022 15.5229009,0 10,0 Z" id="path-1"></path>
        <mask id="mask-2" maskContentUnits="userSpaceOnUse" maskUnits="objectBoundingBox" x="0" y="0" width="20" height="20" fill="white">
            <use xlink:href="#path-1"></use>
        </mask>
    </defs>
    <g id="Page-1" stroke="none" stroke-width="1" fill="none" fill-rule="evenodd">
        <g id="Microflow-Rendering-Copy" transform="translate(-634.000000, -151.000000)">
            <g id="Activities" transform="translate(440.000000, 50.000000)">
                <g id="Entity-Activities">
                    <g id="Change-Object-Activity" transform="translate(174.000000, 81.000000)">
                        <g id="icon" transform="translate(20.000000, 20.000000)">
                            <g id="Entity-icons">
                                <use id="Stroke-2175" stroke="#0595DB" mask="url(#mask-2)" stroke-width="2" fill="#FFFFFF" xlink:href="#path-1"></use>
                                <path d="M8.33333333,9.16666667 L8.33333333,5.83333333 L7.5,5.83333333 L7.5,14.1666667 L8.33333333,14.1666667 L8.33333333,10 L10,10 L10,9.16666667 L8.33333333,9.16666667 Z M11.6666667,12.5 L12.5,12.5 L12.5,14.1666667 L11.6666667,14.1666667 L11.6666667,12.5 Z M12.5,15 L7.5,15 L7.5,14.1666667 L12.5,14.1666667 L12.5,15 Z M10.8333333,8.33333333 L10.8333333,10.8333333 L10,10.8333333 L10,8.33333333 L10.8333333,8.33333333 Z M11.6666667,5.83333333 L12.5,5.83333333 L12.5,7.5 L11.6666667,7.5 L11.6666667,5.83333333 Z M12.5,5 L12.5,5.83333333 L7.5,5.83333333 L7.5,5 L12.5,5 Z" id="Combined-Shape" fill="#0595DB"></path>
                            </g>
                            <g id="Change-icon" transform="translate(10.000000, 8.000000)">
                                <path d="M7.24595833,0.00368333333 C3.66175,0.00368333333 0.745958333,2.919475 0.745958333,6.50368333 C0.745958333,10.08735 3.66175,13.0036833 7.24595833,13.0036833 C10.829625,13.0036833 13.7459583,10.08735 13.7459583,6.50368333 C13.7459583,2.919475 10.829625,0.00368333333 7.24595833,0.00368333333 L7.24595833,0.00368333333 Z" id="Fill-620" fill="#888888"></path>
                                <path d="M3.59079167,9.802975 L4.66816667,7.28801667 L6.46108333,9.08093333 L3.946125,10.15885 C3.912,10.173475 3.87570833,10.1810583 3.83941667,10.1810583 C3.769,10.1810583 3.69966667,10.1534333 3.64820833,10.1014333 C3.56966667,10.0234333 3.54691667,9.90480833 3.59079167,9.802975 L3.59079167,9.802975 Z" id="Path" fill="#FFFFFF"></path>
                                <path d="M6.8955,8.74943333 L4.99045833,6.84385 L8.40079167,3.43351667 C8.40404167,3.43676667 8.405125,3.44164167 8.408375,3.44489167 L10.3139583,5.350475 L6.90308333,8.76080833 C6.900375,8.75755833 6.89929167,8.75268333 6.8955,8.74943333 L6.8955,8.74943333 Z" id="Path" fill="#FFFFFF"></path>
                                <path d="M8.79133333,3.06193333 C8.78808333,3.05868333 8.78320833,3.0576 8.77995833,3.05435 L9.584875,2.24943333 C9.63579167,2.19851667 9.70458333,2.17035 9.77608333,2.17035 C9.848125,2.17035 9.91691667,2.19851667 9.96783333,2.24943333 L11.4996667,3.78180833 C11.6058333,3.88743333 11.6058333,4.0586 11.4996667,4.16476667 L10.6969167,4.96751667 L8.79133333,3.06193333 Z" id="Path" fill="#FFFFFF"></path>
                            </g>
                        </g>
                    </g>
                </g>
            </g>
        </g>
    </g>
</svg>