<?xml version="1.0" encoding="UTF-8"?>
<svg width="24px" height="22px" viewBox="0 0 24 22" version="1.1" xmlns="http://www.w3.org/2000/svg" xmlns:xlink="http://www.w3.org/1999/xlink">
    <!-- Generator: sketchtool 41.2 (35397) - http://www.bohemiancoding.com/sketch -->
    <title>0ED8A64C-6F70-4DC9-AA1A-798F63B4046B</title>
    <desc>Created with sketchtool.</desc>
    <defs>
        <path d="M10,0 C4.47654802,0 0,4.47654802 0,10 C0,15.523452 4.47654802,20 10,20 C15.5229009,20 20,15.5231698 20,10 C20,4.47683022 15.5229009,0 10,0 Z" id="path-1"></path>
        <mask id="mask-2" maskContentUnits="userSpaceOnUse" maskUnits="objectBoundingBox" x="0" y="0" width="20" height="20" fill="white">
            <use xlink:href="#path-1"></use>
        </mask>
    </defs>
    <g id="Page-1" stroke="none" stroke-width="1" fill="none" fill-rule="evenodd">
        <g id="Microflow-Rendering-Copy" transform="translate(-467.000000, -293.000000)">
            <g id="Activities" transform="translate(447.000000, 50.000000)">
                <g id="Entity-Activities">
                    <g id="Commit-Object" transform="translate(0.000000, 223.000000)">
                        <g id="icon-copy" transform="translate(20.000000, 20.000000)">
                            <g id="Entity-icons">
                                <use id="Stroke-2175" stroke="#0595DB" mask="url(#mask-2)" stroke-width="2" fill="#FFFFFF" xlink:href="#path-1"></use>
                                <path d="M8.33333333,9.16666667 L8.33333333,5.83333333 L7.5,5.83333333 L7.5,14.1666667 L8.33333333,14.1666667 L8.33333333,10 L10,10 L10,9.16666667 L8.33333333,9.16666667 Z M11.6666667,12.5 L12.5,12.5 L12.5,14.1666667 L11.6666667,14.1666667 L11.6666667,12.5 Z M12.5,15 L7.5,15 L7.5,14.1666667 L12.5,14.1666667 L12.5,15 Z M10.8333333,8.33333333 L10.8333333,10.8333333 L10,10.8333333 L10,8.33333333 L10.8333333,8.33333333 Z M11.6666667,5.83333333 L12.5,5.83333333 L12.5,7.5 L11.6666667,7.5 L11.6666667,5.83333333 Z M12.5,5 L12.5,5.83333333 L7.5,5.83333333 L7.5,5 L12.5,5 Z" id="Combined-Shape" fill="#0595DB"></path>
                            </g>
                            <g id="Change-icon" transform="translate(11.000000, 9.000000)">
                                <path d="M6.5,0 C2.91579167,0 0,2.91579167 0,6.5 C0,10.0836667 2.91579167,13 6.5,13 C10.0836667,13 13,10.0836667 13,6.5 C13,2.91579167 10.0836667,0 6.5,0 L6.5,0 Z" id="Fill-620" fill="#888888"></path>
                                <path d="M9.217,7.414 L6.682,9.95 L4.147,7.414 C3.951,7.219 3.951,6.902 4.147,6.707 C4.342,6.512 4.658,6.512 4.854,6.707 L6.197,8.051 L6.197,3.5 C6.197,3.224 6.421,3 6.697,3 C6.973,3 7.197,3.224 7.197,3.5 L7.197,8.02 L8.51,6.707 C8.705,6.512 9.022,6.512 9.217,6.707 C9.412,6.902 9.412,7.219 9.217,7.414" id="Path" fill="#FFFFFF" transform="translate(6.681625, 6.475000) rotate(-180.000000) translate(-6.681625, -6.475000) "></path>
                            </g>
                        </g>
                    </g>
                </g>
            </g>
        </g>
    </g>
</svg>