<?xml version="1.0" encoding="UTF-8" standalone="no"?>
<svg width="24px" height="22px" viewBox="0 0 24 22" version="1.1" xmlns="http://www.w3.org/2000/svg" xmlns:xlink="http://www.w3.org/1999/xlink">
    <!-- Generator: sketchtool 40.2 (33826) - http://www.bohemiancoding.com/sketch -->
    <title>2234515C-34FA-44C3-8232-119A4F12BD00</title>
    <desc>Created with sketchtool.</desc>
    <defs>
        <path d="M10,0 C4.47654802,0 0,4.47654802 0,10 C0,15.523452 4.47654802,20 10,20 C15.5229009,20 20,15.5231698 20,10 C20,4.47683022 15.5229009,0 10,0 Z" id="path-1"></path>
        <mask id="mask-2" maskContentUnits="userSpaceOnUse" maskUnits="objectBoundingBox" x="0" y="0" width="20" height="20" fill="white">
            <use xlink:href="#path-1"></use>
        </mask>
    </defs>
    <g id="Page-1" stroke="none" stroke-width="1" fill="none" fill-rule="evenodd">
        <g id="Microflow-Rendering-Copy" transform="translate(-461.000000, -374.000000)">
            <g id="Activities" transform="translate(440.000000, 50.000000)">
                <g id="List-activities" transform="translate(1.000000, 233.000000)">
                    <g id="Create-Object-Activity" transform="translate(0.000000, 71.000000)">
                        <g id="icon" transform="translate(20.000000, 20.000000)">
                            <g id="Entity-icons">
                                <use id="Stroke-2175" stroke="#0595DB" mask="url(#mask-2)" stroke-width="2" fill="#FFFFFF" xlink:href="#path-1"></use>
                                <g id="List-icon" transform="translate(5.000000, 5.000000)" fill="#0595DB">
                                    <polygon id="Fill-6077" points="0.416666667 1.5 9.58333333 1.5 9.58333333 0.5 0.416666667 0.5"></polygon>
                                    <polygon id="Fill-6078" points="0.416666667 5.5 9.58333333 5.5 9.58333333 4.5 0.416666667 4.5"></polygon>
                                    <polygon id="Fill-6079" points="0.416666667 9.5 9.58333333 9.5 9.58333333 8.5 0.416666667 8.5"></polygon>
                                </g>
                            </g>
                            <path d="M17.5,9 C13.916,9 11,11.916 11,15.5 C11,19.084 13.916,22 17.5,22 C21.084,22 24,19.084 24,15.5 C24,11.916 21.084,9 17.5,9" id="Bakground-plus" fill="#888888"></path>
                            <g id="plus" transform="translate(11.000000, 9.000000)">
                                <path d="M6.5,0 C2.91554545,0 0,2.91554545 0,6.5 C0,10.0844545 2.91554545,13 6.5,13 C10.0844545,13 13,10.0844545 13,6.5 C13,2.91554545 10.0844545,0 6.5,0" id="Fill-4864" fill="#76CA02"></path>
                                <path d="M9.41666667,7.08333333 L7.08333333,7.08333333 L7.08333333,9.41666667 C7.08333333,9.73866667 6.822,10 6.5,10 C6.178,10 5.91666667,9.73866667 5.91666667,9.41666667 L5.91666667,7.08333333 L3.58333333,7.08333333 C3.26133333,7.08333333 3,6.822 3,6.5 C3,6.178 3.26133333,5.91666667 3.58333333,5.91666667 L5.91666667,5.91666667 L5.91666667,3.58333333 C5.91666667,3.26133333 6.178,3 6.5,3 C6.822,3 7.08333333,3.26133333 7.08333333,3.58333333 L7.08333333,5.33333333 L7.08333333,5.91666667 L9.41666667,5.91666667 C9.73866667,5.91666667 10,6.178 10,6.5 C10,6.822 9.73866667,7.08333333 9.41666667,7.08333333" id="Path" fill="#FFFFFF"></path>
                            </g>
                        </g>
                    </g>
                </g>
            </g>
        </g>
    </g>
</svg>