<?xml version="1.0" encoding="UTF-8" standalone="no"?>
<svg width="24px" height="22px" viewBox="0 0 24 22" version="1.1" xmlns="http://www.w3.org/2000/svg" xmlns:xlink="http://www.w3.org/1999/xlink">
    <!-- Generator: sketchtool 40.3 (33839) - http://www.bohemiancoding.com/sketch -->
    <title>81A6685A-D27C-43CE-B798-4CBB498AAD89</title>
    <desc>Created with sketchtool.</desc>
    <defs>
        <path d="M10,0 C4.47654802,0 0,4.47654802 0,10 C0,15.523452 4.47654802,20 10,20 C15.5229009,20 20,15.5231698 20,10 C20,4.47683022 15.5229009,0 10,0 Z" id="path-1"></path>
        <mask id="mask-2" maskContentUnits="userSpaceOnUse" maskUnits="objectBoundingBox" x="0" y="0" width="20" height="20" fill="white">
            <use xlink:href="#path-1"></use>
        </mask>
    </defs>
    <g id="Page-1" stroke="none" stroke-width="1" fill="none" fill-rule="evenodd">
        <g id="Microflow-Rendering-Copy" transform="translate(-707.000000, -595.000000)">
            <g id="Activities" transform="translate(440.000000, 50.000000)">
                <g id="Variable-activities" transform="translate(1.000000, 454.000000)">
                    <g id="Create-Variable-Activity" transform="translate(246.000000, 71.000000)">
                        <g id="icon" transform="translate(20.000000, 20.000000)">
                            <g id="Entity-icons">
                                <use id="Stroke-2175" stroke="#0595DB" mask="url(#mask-2)" stroke-width="2" fill="#FFFFFF" xlink:href="#path-1"></use>
                                <path d="M4.68087179,12.1923077 L7.806,15.3174359 L14.4358974,8.55158974 L14.4358974,5.56410256 L11.3051282,5.56805128 L4.68087179,12.1923077 Z M7.80769231,16 C7.73266667,16 7.66102564,15.9701026 7.6085641,15.917641 L4.08292308,12.392 C3.97235897,12.2814359 3.97235897,12.1031795 4.08292308,11.9926154 L10.9886667,5.08687179 C11.0411282,5.03441026 11.1127692,5.00451282 11.1877949,5.00451282 L14.7179487,5 C14.7924103,5 14.8646154,5.02989744 14.9170769,5.08235897 C14.9701026,5.13538462 15,5.20702564 15,5.28205128 L15,8.66666667 C15,8.7405641 14.9712308,8.81107692 14.9193333,8.86410256 L8.00907692,15.9153846 C7.95605128,15.9695385 7.86015385,15.9847692 7.80769231,16 L7.80769231,16 Z" id="Fill-1265" fill="#0595DB"></path>
                                <path d="M12,9 C11.4485,9 11,8.5515 11,8 C11,7.4485 11.4485,7 12,7 C12.5515,7 13,7.4485 13,8 C13,8.5515 12.5515,9 12,9" id="Fill-1266" fill="#0595DB"></path>
                            </g>
                            <g id="plus" transform="translate(11.000000, 9.000000)">
                                <path d="M6.5,0 C2.91554545,0 0,2.91554545 0,6.5 C0,10.0844545 2.91554545,13 6.5,13 C10.0844545,13 13,10.0844545 13,6.5 C13,2.91554545 10.0844545,0 6.5,0" id="Fill-4864" fill="#76CA02"></path>
                                <path d="M9.41666667,7.08333333 L7.08333333,7.08333333 L7.08333333,9.41666667 C7.08333333,9.73866667 6.822,10 6.5,10 C6.178,10 5.91666667,9.73866667 5.91666667,9.41666667 L5.91666667,7.08333333 L3.58333333,7.08333333 C3.26133333,7.08333333 3,6.822 3,6.5 C3,6.178 3.26133333,5.91666667 3.58333333,5.91666667 L5.91666667,5.91666667 L5.91666667,3.58333333 C5.91666667,3.26133333 6.178,3 6.5,3 C6.822,3 7.08333333,3.26133333 7.08333333,3.58333333 L7.08333333,5.33333333 L7.08333333,5.91666667 L9.41666667,5.91666667 C9.73866667,5.91666667 10,6.178 10,6.5 C10,6.822 9.73866667,7.08333333 9.41666667,7.08333333" id="Path" fill="#FFFFFF"></path>
                            </g>
                        </g>
                    </g>
                </g>
            </g>
        </g>
    </g>
</svg>