<?xml version="1.0" encoding="UTF-8" standalone="no"?>
<svg width="24px" height="22px" viewBox="0 0 24 22" version="1.1" xmlns="http://www.w3.org/2000/svg" xmlns:xlink="http://www.w3.org/1999/xlink">
    <!-- Generator: sketchtool 40.2 (33826) - http://www.bohemiancoding.com/sketch -->
    <title>C08FBB50-0B08-4424-B5AA-DDE76073B246</title>
    <desc>Created with sketchtool.</desc>
    <defs>
        <path d="M10,0 C4.47654802,0 0,4.47654802 0,10 C0,15.523452 4.47654802,20 10,20 C15.5229009,20 20,15.5231698 20,10 C20,4.47683022 15.5229009,0 10,0 Z" id="path-1"></path>
        <mask id="mask-2" maskContentUnits="userSpaceOnUse" maskUnits="objectBoundingBox" x="0" y="0" width="20" height="20" fill="white">
            <use xlink:href="#path-1"></use>
        </mask>
    </defs>
    <g id="Page-1" stroke="none" stroke-width="1" fill="none" fill-rule="evenodd">
        <g id="Microflow-Rendering-Copy" transform="translate(-460.000000, -151.000000)">
            <g id="Activities" transform="translate(440.000000, 50.000000)">
                <g id="Entity-Activities">
                    <g id="Create-Object---commit/refresh/events" transform="translate(0.000000, 81.000000)">
                        <g id="Create-Object-Activity">
                            <g id="icon" transform="translate(20.000000, 20.000000)">
                                <g id="Entity-icons">
                                    <use id="Stroke-2175" stroke="#0595DB" mask="url(#mask-2)" stroke-width="2" fill="#FFFFFF" xlink:href="#path-1"></use>
                                    <path d="M8.33333333,9.16666667 L8.33333333,5.83333333 L7.5,5.83333333 L7.5,14.1666667 L8.33333333,14.1666667 L8.33333333,10 L10,10 L10,9.16666667 L8.33333333,9.16666667 Z M11.6666667,12.5 L12.5,12.5 L12.5,14.1666667 L11.6666667,14.1666667 L11.6666667,12.5 Z M12.5,15 L7.5,15 L7.5,14.1666667 L12.5,14.1666667 L12.5,15 Z M10.8333333,8.33333333 L10.8333333,10.8333333 L10,10.8333333 L10,8.33333333 L10.8333333,8.33333333 Z M11.6666667,5.83333333 L12.5,5.83333333 L12.5,7.5 L11.6666667,7.5 L11.6666667,5.83333333 Z M12.5,5 L12.5,5.83333333 L7.5,5.83333333 L7.5,5 L12.5,5 Z" id="Combined-Shape" fill="#0595DB"></path>
                                </g>
                                <g id="plus" transform="translate(11.000000, 9.000000)">
                                    <path d="M6.5,0 C2.91554545,0 0,2.91554545 0,6.5 C0,10.0844545 2.91554545,13 6.5,13 C10.0844545,13 13,10.0844545 13,6.5 C13,2.91554545 10.0844545,0 6.5,0" id="Fill-4864" fill="#76CA02"></path>
                                    <path d="M9.45454545,7.09090909 L7.09090909,7.09090909 L7.09090909,9.45454545 C7.09090909,9.78072727 6.82618182,10.0454545 6.5,10.0454545 C6.17381818,10.0454545 5.90909091,9.78072727 5.90909091,9.45454545 L5.90909091,7.09090909 L3.54545455,7.09090909 C3.21927273,7.09090909 2.95454545,6.82618182 2.95454545,6.5 C2.95454545,6.17381818 3.21927273,5.90909091 3.54545455,5.90909091 L5.90909091,5.90909091 L5.90909091,3.54545455 C5.90909091,3.21927273 6.17381818,2.95454545 6.5,2.95454545 C6.82618182,2.95454545 7.09090909,3.21927273 7.09090909,3.54545455 L7.09090909,5.31818182 L7.09090909,5.90909091 L9.45454545,5.90909091 C9.78072727,5.90909091 10.0454545,6.17381818 10.0454545,6.5 C10.0454545,6.82618182 9.78072727,7.09090909 9.45454545,7.09090909" id="Path" fill="#FFFFFF"></path>
                                </g>
                            </g>
                        </g>
                    </g>
                </g>
            </g>
        </g>
    </g>
</svg>