<?xml version="1.0" encoding="UTF-8" standalone="no"?>
<svg width="24px" height="22px" viewBox="0 0 24 22" version="1.1" xmlns="http://www.w3.org/2000/svg" xmlns:xlink="http://www.w3.org/1999/xlink">
    <!-- Generator: sketchtool 40.2 (33826) - http://www.bohemiancoding.com/sketch -->
    <title>24C88A00-0DCE-4A0F-A47E-0F343888EA28</title>
    <desc>Created with sketchtool.</desc>
    <defs>
        <path d="M10,0 C4.47654802,0 0,4.47654802 0,10 C0,15.523452 4.47654802,20 10,20 C15.5229009,20 20,15.5231698 20,10 C20,4.47683022 15.5229009,0 10,0 Z" id="path-1"></path>
        <mask id="mask-2" maskContentUnits="userSpaceOnUse" maskUnits="objectBoundingBox" x="0" y="0" width="20" height="20" fill="white">
            <use xlink:href="#path-1"></use>
        </mask>
    </defs>
    <g id="Page-1" stroke="none" stroke-width="1" fill="none" fill-rule="evenodd">
        <g id="Microflow-Rendering-Copy" transform="translate(-1476.000000, -151.000000)">
            <g id="Activities" transform="translate(440.000000, 50.000000)">
                <g id="Entity-Activities">
                    <g id="Delete-Object-Activity" transform="translate(1016.000000, 81.000000)">
                        <g id="icon" transform="translate(20.000000, 20.000000)">
                            <g id="Entity-icons">
                                <use id="Stroke-2175" stroke="#0595DB" mask="url(#mask-2)" stroke-width="2" fill="#FFFFFF" xlink:href="#path-1"></use>
                                <path d="M8.33333333,9.16666667 L8.33333333,5.83333333 L7.5,5.83333333 L7.5,14.1666667 L8.33333333,14.1666667 L8.33333333,10 L10,10 L10,9.16666667 L8.33333333,9.16666667 Z M11.6666667,12.5 L12.5,12.5 L12.5,14.1666667 L11.6666667,14.1666667 L11.6666667,12.5 Z M12.5,15 L7.5,15 L7.5,14.1666667 L12.5,14.1666667 L12.5,15 Z M10.8333333,8.33333333 L10.8333333,10.8333333 L10,10.8333333 L10,8.33333333 L10.8333333,8.33333333 Z M11.6666667,5.83333333 L12.5,5.83333333 L12.5,7.5 L11.6666667,7.5 L11.6666667,5.83333333 Z M12.5,5 L12.5,5.83333333 L7.5,5.83333333 L7.5,5 L12.5,5 Z" id="Combined-Shape" fill="#0595DB"></path>
                            </g>
                            <g id="close" transform="translate(11.000000, 9.000000)">
                                <path d="M6.5,0 C2.916,0 0,2.915 0,6.5 C0,10.084 2.916,13 6.5,13 C10.084,13 13,10.084 13,6.5 C13,2.915 10.084,0 6.5,0 L6.5,0 Z" id="Fill-4818" fill="#EA202D"></path>
                                <path d="M9.554,8.846 C9.749,9.041 9.749,9.358 9.554,9.553 C9.456,9.651 9.328,9.7 9.2,9.7 C9.073,9.7 8.945,9.651 8.847,9.553 L6.5,7.207 L4.154,9.553 C4.056,9.651 3.928,9.7 3.8,9.7 C3.672,9.7 3.544,9.651 3.447,9.553 C3.251,9.358 3.251,9.041 3.447,8.846 L5.793,6.5 L3.447,4.153 C3.251,3.958 3.251,3.641 3.447,3.446 C3.642,3.251 3.958,3.251 4.154,3.446 L6.5,5.793 L8.847,3.446 C9.042,3.251 9.359,3.251 9.554,3.446 C9.749,3.641 9.749,3.958 9.554,4.153 L7.207,6.5 L9.554,8.846 Z" id="Path" fill="#FFFFFF"></path>
                            </g>
                        </g>
                    </g>
                </g>
            </g>
        </g>
    </g>
</svg>