<?xml version="1.0" encoding="UTF-8" standalone="no"?>
<svg width="14px" height="14px" viewBox="0 0 14 14" version="1.1" xmlns="http://www.w3.org/2000/svg" xmlns:xlink="http://www.w3.org/1999/xlink">
    <!-- Generator: sketchtool 40.3 (33839) - http://www.bohemiancoding.com/sketch -->
    <title>29546445-EF42-4403-892D-4E81A62A3E6C</title>
    <desc>Created with sketchtool.</desc>
    <defs>
        <path d="M7,0 C3.13358361,0 0,3.13358361 0,7 C0,10.8664164 3.13358361,14 7,14 C10.8660306,14 14,10.8662188 14,7 C14,3.13378116 10.8660306,0 7,0 Z" id="path-1"></path>
        <mask id="mask-2" maskContentUnits="userSpaceOnUse" maskUnits="objectBoundingBox" x="0" y="0" width="14" height="14" fill="white">
            <use xlink:href="#path-1"></use>
        </mask>
    </defs>
    <g id="Page-1" stroke="none" stroke-width="1" fill="none" fill-rule="evenodd">
        <g id="Microflow-Rendering-Copy" transform="translate(-474.000000, -219.000000)">
            <g id="Activities" transform="translate(440.000000, 50.000000)">
                <g id="Entity-Activities">
                    <g id="Create-Object---commit/refresh/events" transform="translate(0.000000, 81.000000)">
                        <g id="Create-Object-Activity">
                            <g id="Subtext" transform="translate(34.000000, 68.000000)">
                                <g id="Entity" transform="translate(0.000000, 19.000000)">
                                    <g id="Entity-icons" transform="translate(0.000000, 1.000000)">
                                        <use id="Stroke-2175" stroke="#0595DB" mask="url(#mask-2)" stroke-width="1.39999998" fill="#FFFFFF" xlink:href="#path-1"></use>
                                        <path d="M5.83333333,6.41666667 L5.83333333,4.08333333 L5.25,4.08333333 L5.25,9.91666667 L5.83333333,9.91666667 L5.83333333,7 L7,7 L7,6.41666667 L5.83333333,6.41666667 Z M8.16666667,8.75 L8.75,8.75 L8.75,9.91666667 L8.16666667,9.91666667 L8.16666667,8.75 Z M8.75,10.5 L5.25,10.5 L5.25,9.91666667 L8.75,9.91666667 L8.75,10.5 Z M7.58333333,5.83333333 L7.58333333,7.58333333 L7,7.58333333 L7,5.83333333 L7.58333333,5.83333333 Z M8.16666667,4.08333333 L8.75,4.08333333 L8.75,5.25 L8.16666667,5.25 L8.16666667,4.08333333 Z M8.75,3.5 L8.75,4.08333333 L5.25,4.08333333 L5.25,3.5 L8.75,3.5 Z" id="Combined-Shape" fill="#0595DB"></path>
                                    </g>
                                </g>
                            </g>
                        </g>
                    </g>
                </g>
            </g>
        </g>
    </g>
</svg>