<svg width="23" height="22" viewBox="0 0 23 22" fill="none" xmlns="http://www.w3.org/2000/svg">
    <path d="M0.785714 10.2143C0.785714 5.00641 5.00641 0.785714 10.2143 0.785714C15.4216 0.785714 19.6429 5.00671 19.6429 10.2143C19.6429 15.4219 15.4216 19.6429 10.2143 19.6429C5.00641 19.6429 0.785714 15.4222 0.785714 10.2143Z" fill="white" stroke="#48B0F7" stroke-width="1.57143"/>
    <path fill-rule="evenodd" clip-rule="evenodd" d="M7.76813 5.36918C7.76813 5.15221 7.94402 4.97632 8.16098 4.97632H12.2642C12.4811 4.97632 12.657 5.15221 12.657 5.36918V6.6787C12.657 6.89567 12.4811 7.07156 12.2642 7.07156H8.16098C7.94402 7.07156 7.76813 6.89567 7.76813 6.6787V5.36918Z" stroke="#48B0F7" stroke-width="1.5" stroke-linecap="round" stroke-linejoin="round"/>
    <path d="M10.2125 7.07141V13.3571" stroke="#48B0F7" stroke-width="1.5" stroke-linecap="round" stroke-linejoin="round"/>
    <path d="M6.72052 13.3571V11.2619C6.72052 10.8762 7.03321 10.5635 7.41893 10.5635H13.0062C13.392 10.5635 13.7046 10.8762 13.7046 11.2619V13.3571" stroke="#48B0F7" stroke-width="1.5" stroke-linecap="round" stroke-linejoin="round"/>
    <path fill-rule="evenodd" clip-rule="evenodd" d="M6.72047 15.4524C7.29905 15.4524 7.76809 14.9834 7.76809 14.4048C7.76809 13.8262 7.29905 13.3572 6.72047 13.3572C6.14189 13.3572 5.67285 13.8262 5.67285 14.4048C5.67285 14.9834 6.14189 15.4524 6.72047 15.4524Z" stroke="#48B0F7" stroke-width="1.5" stroke-linecap="round" stroke-linejoin="round"/>
    <path fill-rule="evenodd" clip-rule="evenodd" d="M10.2125 15.4524C10.7911 15.4524 11.2602 14.9834 11.2602 14.4048C11.2602 13.8262 10.7911 13.3572 10.2125 13.3572C9.63395 13.3572 9.16492 13.8262 9.16492 14.4048C9.16492 14.9834 9.63395 15.4524 10.2125 15.4524Z" stroke="#48B0F7" stroke-width="1.5" stroke-linecap="round" stroke-linejoin="round"/>
    <path fill-rule="evenodd" clip-rule="evenodd" d="M13.7046 15.4524C14.2832 15.4524 14.7523 14.9834 14.7523 14.4048C14.7523 13.8262 14.2832 13.3572 13.7046 13.3572C13.126 13.3572 12.657 13.8262 12.657 14.4048C12.657 14.9834 13.126 15.4524 13.7046 15.4524Z" stroke="#48B0F7" stroke-width="1.5" stroke-linecap="round" stroke-linejoin="round"/>
    <path fill-rule="evenodd" clip-rule="evenodd" d="M16.7143 9.42859C13.248 9.42859 10.4286 12.248 10.4286 15.7143C10.4286 19.1806 13.248 22 16.7143 22C20.1806 22 23 19.1806 23 15.7143C23 12.248 20.1806 9.42859 16.7143 9.42859Z" fill="#555555"/>
    <path d="M14.3571 14.1429H19.0714" stroke="white" stroke-width="1.57143" stroke-linecap="round" stroke-linejoin="round"/>
    <path d="M14.3571 17.2857H19.0714" stroke="white" stroke-width="1.57143" stroke-linecap="round" stroke-linejoin="round"/>
</svg>
