<svg width="24" height="22" viewBox="0 0 24 22" fill="none" xmlns="http://www.w3.org/2000/svg">
    <path d="M1.57144 11.0001C1.57144 5.79218 5.79213 1.57148 11 1.57148C16.2073 1.57148 20.4286 5.79248 20.4286 11.0001C20.4286 16.2076 16.2073 20.4286 11 20.4286C5.79213 20.4286 1.57144 16.2079 1.57144 11.0001Z" fill="white" stroke="#48B0F7" stroke-width="1.57143"/>
    <path fill-rule="evenodd" clip-rule="evenodd" d="M8.55385 6.15531C8.55385 5.93834 8.72974 5.76245 8.94671 5.76245H13.0499C13.2668 5.76245 13.4427 5.93834 13.4427 6.15531V7.46483C13.4427 7.6818 13.2668 7.85769 13.0499 7.85769H8.94671C8.72974 7.85769 8.55385 7.6818 8.55385 7.46483V6.15531Z" stroke="#48B0F7" stroke-width="1.57143" stroke-linecap="round" stroke-linejoin="round"/>
    <path d="M10.9982 7.85754V14.1433" stroke="#48B0F7" stroke-width="1.57143" stroke-linecap="round" stroke-linejoin="round"/>
    <path d="M7.50627 14.1435V12.0483C7.50627 11.6625 7.81896 11.3499 8.20468 11.3499H13.792C14.1777 11.3499 14.4904 11.6625 14.4904 12.0483V14.1435" stroke="#48B0F7" stroke-width="1.57143" stroke-linecap="round" stroke-linejoin="round"/>
    <path fill-rule="evenodd" clip-rule="evenodd" d="M7.50619 16.2384C8.08478 16.2384 8.55381 15.7694 8.55381 15.1908C8.55381 14.6122 8.08478 14.1432 7.50619 14.1432C6.92761 14.1432 6.45857 14.6122 6.45857 15.1908C6.45857 15.7694 6.92761 16.2384 7.50619 16.2384Z" stroke="#48B0F7" stroke-width="1.57143" stroke-linecap="round" stroke-linejoin="round"/>
    <path fill-rule="evenodd" clip-rule="evenodd" d="M10.9983 16.2384C11.5769 16.2384 12.0459 15.7694 12.0459 15.1908C12.0459 14.6122 11.5769 14.1432 10.9983 14.1432C10.4197 14.1432 9.95067 14.6122 9.95067 15.1908C9.95067 15.7694 10.4197 16.2384 10.9983 16.2384Z" stroke="#48B0F7" stroke-width="1.57143" stroke-linecap="round" stroke-linejoin="round"/>
    <path fill-rule="evenodd" clip-rule="evenodd" d="M14.4904 16.2384C15.069 16.2384 15.538 15.7694 15.538 15.1908C15.538 14.6122 15.069 14.1432 14.4904 14.1432C13.9118 14.1432 13.4428 14.6122 13.4428 15.1908C13.4428 15.7694 13.9118 16.2384 14.4904 16.2384Z" stroke="#48B0F7" stroke-width="1.57143" stroke-linecap="round" stroke-linejoin="round"/>
    <mask id="path-8-inside-1_32_192" fill="white">
        <path fill-rule="evenodd" clip-rule="evenodd" d="M11.4286 12.1223V19.6757C11.4286 20.9598 14.2433 21.9999 17.7143 21.9999C21.1853 21.9999 24 20.9598 24 19.6757V12.1223"/>
    </mask>
    <path fill-rule="evenodd" clip-rule="evenodd" d="M11.4286 12.1223V19.6757C11.4286 20.9598 14.2433 21.9999 17.7143 21.9999C21.1853 21.9999 24 20.9598 24 19.6757V12.1223" fill="white"/>
    <path d="M13 12.1223C13 11.2544 12.2964 10.5509 11.4286 10.5509C10.5607 10.5509 9.85715 11.2544 9.85715 12.1223H13ZM25.5714 12.1223C25.5714 11.2544 24.8679 10.5509 24 10.5509C23.1321 10.5509 22.4286 11.2544 22.4286 12.1223H25.5714ZM9.85715 12.1223V19.6757H13V12.1223H9.85715ZM9.85715 19.6757C9.85715 20.6164 10.378 21.3175 10.8884 21.7637C11.402 22.2127 12.0545 22.5454 12.7249 22.7933C14.078 23.2935 15.8424 23.5713 17.7143 23.5713V20.4284C16.1151 20.4284 14.7366 20.1862 13.8147 19.8454C13.3476 19.6727 13.0794 19.5047 12.9568 19.3975C12.831 19.2875 13 19.3772 13 19.6757H9.85715ZM17.7143 23.5713C19.5862 23.5713 21.3505 23.2935 22.7037 22.7933C23.3741 22.5454 24.0266 22.2127 24.5402 21.7637C25.0506 21.3175 25.5714 20.6164 25.5714 19.6757H22.4286C22.4286 19.3772 22.5976 19.2875 22.4717 19.3975C22.3491 19.5047 22.081 19.6727 21.6139 19.8454C20.6919 20.1862 19.3134 20.4284 17.7143 20.4284V23.5713ZM25.5714 19.6757V12.1223H22.4286V19.6757H25.5714Z" fill="#555555" mask="url(#path-8-inside-1_32_192)"/>
    <path d="M23.2143 12.1225C23.2143 12.2288 23.1673 12.3958 22.9467 12.6193C22.7227 12.8462 22.3597 13.0866 21.8491 13.3053C20.8307 13.7417 19.3692 14.0306 17.7143 14.0306C16.059 14.0306 14.5975 13.7417 13.5792 13.3053C13.0687 13.0866 12.7057 12.8462 12.4818 12.6194C12.2613 12.3959 12.2143 12.2289 12.2143 12.1225C12.2143 12.0166 12.2611 11.8497 12.4818 11.6262C12.7057 11.3993 13.0688 11.1589 13.5793 10.9401C14.5977 10.5036 16.0591 10.2143 17.7143 10.2143C19.3691 10.2143 20.8306 10.5036 21.849 10.9401C22.3596 11.1589 22.7227 11.3993 22.9468 11.6262C23.1675 11.8498 23.2143 12.0166 23.2143 12.1225Z" fill="white" stroke="#555555" stroke-width="1.57143" stroke-linecap="round" stroke-linejoin="round"/>
    <mask id="path-11-inside-2_32_192" fill="white">
        <path fill-rule="evenodd" clip-rule="evenodd" d="M24 15.7142C24 17.2026 21.1853 18.4081 17.7143 18.4081C14.2433 18.4081 11.4286 17.2026 11.4286 15.7142"/>
    </mask>
    <path fill-rule="evenodd" clip-rule="evenodd" d="M24 15.7142C24 17.2026 21.1853 18.4081 17.7143 18.4081C14.2433 18.4081 11.4286 17.2026 11.4286 15.7142" fill="white"/>
    <path d="M25.5714 15.7142C25.5714 14.8464 24.8679 14.1428 24 14.1428C23.1321 14.1428 22.4286 14.8464 22.4286 15.7142H25.5714ZM13 15.7142C13 14.8464 12.2964 14.1428 11.4286 14.1428C10.5607 14.1428 9.85715 14.8464 9.85715 15.7142H13ZM22.4286 15.7142C22.4286 15.555 22.5105 15.5346 22.3875 15.6592C22.2578 15.7906 21.9922 15.9811 21.5399 16.1749C20.6408 16.5601 19.2893 16.8367 17.7143 16.8367V19.9795C19.6103 19.9795 21.4016 19.6533 22.7777 19.0637C23.4629 18.7701 24.1179 18.3801 24.6244 17.8669C25.1376 17.3469 25.5714 16.6177 25.5714 15.7142H22.4286ZM17.7143 16.8367C16.1393 16.8367 14.7878 16.5601 13.8887 16.1749C13.4364 15.9811 13.1708 15.7906 13.041 15.6592C12.918 15.5346 13 15.555 13 15.7142H9.85715C9.85715 16.6177 10.2909 17.3469 10.8042 17.8669C11.3107 18.3801 11.9656 18.7701 12.6509 19.0637C14.0269 19.6533 15.8183 19.9795 17.7143 19.9795V16.8367Z" fill="#555555" mask="url(#path-11-inside-2_32_192)"/>
</svg>
