<?xml version="1.0" encoding="UTF-8"?>
<svg width="17px" height="15px" viewBox="0 0 17 15" version="1.1" xmlns="http://www.w3.org/2000/svg" xmlns:xlink="http://www.w3.org/1999/xlink">
    <title>FC29D073-7F83-44A9-8A5E-BA4F5E645606</title>
    <defs></defs>
    <g id="Page-1" stroke="none" stroke-width="1" fill="none" fill-rule="evenodd">
        <g id="Microflow-Rendering-Copy" transform="translate(-475.000000, -975.000000)" fill="#000000">
            <g id="Activities" transform="translate(448.000000, 50.000000)">
                <g id="Loop-Activities" transform="translate(1.000000, 821.000000)">
                    <g id="Loop" transform="translate(0.000000, 71.000000)">
                        <g id="Iterate-over">
                            <g id="Loop-variable" transform="translate(18.000000, 20.000000)">
                                <g id="Fill-3601-+-Fill-3602" transform="translate(16.500000, 20.500000) scale(-1, 1) translate(-16.500000, -20.500000) translate(8.000000, 13.000000)">
                                    <path d="M3.04545455,9.0507 C3.03795455,9.0507 3.03045455,9.0507 3.02295455,9.05 C2.91727273,9.0423 2.82045455,8.9856 2.76181818,8.8946 L0.716363636,5.7446 C0.612045455,5.5843 0.654318182,5.3666 0.811136364,5.2595 C0.967272727,5.1517 1.17931818,5.1951 1.28363636,5.3568 L3.08227273,8.1267 L5.17545455,5.6704 C5.29886364,5.5234 5.51431818,5.5094 5.65613636,5.6375 C5.79795455,5.7649 5.81227273,5.9854 5.68818182,6.131 L3.30181818,8.931 C3.23704545,9.0073 3.14363636,9.0507 3.04545455,9.0507" id="Fill-3601"></path>
                                    <path d="M9.51809091,14.6507 C6.86513636,14.6507 4.45763636,13.0799 3.33331818,10.5921 C3.25422727,10.4171 3.32854545,10.2092 3.499,10.128 C3.67218182,10.0461 3.87331818,10.1231 3.95172727,10.2981 C4.99559091,12.6081 7.27081818,14.048 9.74786364,13.9458 C11.3855909,13.8842 12.9019545,13.1716 14.0180909,11.9389 C15.1335455,10.7055 15.7144545,9.1004 15.6544545,7.419 C15.5296818,3.9477 12.6885455,1.2023 9.2965,1.3549 C7.57081818,1.42 5.93786364,2.2299 4.81695455,3.5774 C3.68445455,4.9389 3.18331818,6.7281 3.40559091,8.6146 C3.42740909,8.8057 3.29445455,8.98 3.10763636,9.0038 C2.91945455,9.0297 2.75104545,8.8904 2.72854545,8.6979 C2.48309091,6.6154 3.04081818,4.6344 4.29809091,3.1224 C5.54240909,1.6272 7.35536364,0.727 9.27127273,0.6549 C13.0267273,0.531 16.1971818,3.5361 16.3355909,7.3931 C16.4024091,9.2621 15.7567273,11.0457 14.5178636,12.4149 C13.2776364,13.7848 11.5928636,14.5772 9.77309091,14.6458 C9.68786364,14.6486 9.60263636,14.6507 9.51809091,14.6507" id="Fill-3602"></path>
                                </g>
                            </g>
                        </g>
                    </g>
                </g>
            </g>
        </g>
    </g>
</svg>
