<?xml version="1.0" encoding="UTF-8" standalone="no"?>
<svg width="14px" height="14px" viewBox="0 0 14 14" version="1.1" xmlns="http://www.w3.org/2000/svg" xmlns:xlink="http://www.w3.org/1999/xlink">
    <!-- Generator: sketchtool 40.3 (33839) - http://www.bohemiancoding.com/sketch -->
    <title>EDA708AE-8752-487D-BFD7-906960BD8D73</title>
    <desc>Created with sketchtool.</desc>
    <defs>
        <path d="M7,0 C3.13358361,0 0,3.13358361 0,7 C0,10.8664164 3.13358361,14 7,14 C10.8660306,14 14,10.8662188 14,7 C14,3.13378116 10.8660306,0 7,0 Z" id="path-1"></path>
        <mask id="mask-2" maskContentUnits="userSpaceOnUse" maskUnits="objectBoundingBox" x="0" y="0" width="14" height="14" fill="white">
            <use xlink:href="#path-1"></use>
        </mask>
    </defs>
    <g id="Page-1" stroke="none" stroke-width="1" fill="none" fill-rule="evenodd">
        <g id="Microflow-Rendering-Copy" transform="translate(-479.000000, -442.000000)">
            <g id="Activities" transform="translate(440.000000, 50.000000)">
                <g id="List-activities" transform="translate(1.000000, 233.000000)">
                    <g id="Create-Object-Activity" transform="translate(0.000000, 71.000000)">
                        <g id="Subtext" transform="translate(27.000000, 68.000000)">
                            <g id="Entity" transform="translate(11.000000, 19.000000)">
                                <g id="Entity-icons" transform="translate(0.000000, 1.000000)">
                                    <use id="Stroke-2175" stroke="#0595DB" mask="url(#mask-2)" stroke-width="1.39999998" fill="#FFFFFF" xlink:href="#path-1"></use>
                                    <g id="Fill-6077-+-Fill-6078-+-Fill-6079" transform="translate(3.500000, 3.500000)" fill="#0595DB">
                                        <polygon id="Fill-6077" points="0.291666667 1.05 6.70833333 1.05 6.70833333 0.35 0.291666667 0.35"></polygon>
                                        <polygon id="Fill-6078" points="0.291666667 3.85 6.70833333 3.85 6.70833333 3.15 0.291666667 3.15"></polygon>
                                        <polygon id="Fill-6079" points="0.291666667 6.65 6.70833333 6.65 6.70833333 5.95 0.291666667 5.95"></polygon>
                                    </g>
                                </g>
                            </g>
                        </g>
                    </g>
                </g>
            </g>
        </g>
    </g>
</svg>