<svg width="24" height="23" viewBox="0 0 24 23" fill="none" xmlns="http://www.w3.org/2000/svg">
    <path d="M1 11.7329C1 6.2094 5.47649 1.73291 11 1.73291C16.5229 1.73291 21 6.20973 21 11.7329C21 17.2561 16.5229 21.7329 11 21.7329C5.47649 21.7329 1 17.2564 1 11.7329Z" fill="white" stroke="#48B0F7" stroke-width="2"/>
    <path fill-rule="evenodd" clip-rule="evenodd" d="M8.36572 6.59192C8.36572 6.31578 8.58958 6.09192 8.86572 6.09192H13.1307C13.4068 6.09192 13.6307 6.31578 13.6307 6.59192V7.84833C13.6307 8.12447 13.4068 8.34833 13.1307 8.34833H8.86572C8.58958 8.34833 8.36572 8.12447 8.36572 7.84833V6.59192Z" stroke="#48B0F7" stroke-width="1.57" stroke-linecap="round" stroke-linejoin="round"/>
    <path d="M11 8.5V15" stroke="#48B0F7" stroke-width="1.5" stroke-linecap="round" stroke-linejoin="round"/>
    <path d="M7.23755 15.1176V12.8611C7.23755 12.4458 7.57429 12.109 7.98969 12.109H14.0068C14.4222 12.109 14.7589 12.4458 14.7589 12.8611V15.1176" stroke="#48B0F7" stroke-width="1.5" stroke-linecap="round" stroke-linejoin="round"/>
    <path fill-rule="evenodd" clip-rule="evenodd" d="M7.23746 17.3738C7.86055 17.3738 8.36566 16.8687 8.36566 16.2456C8.36566 15.6225 7.86055 15.1174 7.23746 15.1174C6.61437 15.1174 6.10925 15.6225 6.10925 16.2456C6.10925 16.8687 6.61437 17.3738 7.23746 17.3738Z" stroke="#48B0F7" stroke-width="1.5" stroke-linecap="round" stroke-linejoin="round"/>
    <path fill-rule="evenodd" clip-rule="evenodd" d="M10.9982 17.3738C11.6213 17.3738 12.1264 16.8687 12.1264 16.2456C12.1264 15.6225 11.6213 15.1174 10.9982 15.1174C10.3751 15.1174 9.87 15.6225 9.87 16.2456C9.87 16.8687 10.3751 17.3738 10.9982 17.3738Z" stroke="#48B0F7" stroke-width="1.5" stroke-linecap="round" stroke-linejoin="round"/>
    <path fill-rule="evenodd" clip-rule="evenodd" d="M14.7588 17.3738C15.3819 17.3738 15.887 16.8687 15.887 16.2456C15.887 15.6225 15.3819 15.1174 14.7588 15.1174C14.1357 15.1174 13.6306 15.6225 13.6306 16.2456C13.6306 16.8687 14.1357 17.3738 14.7588 17.3738Z" stroke="#48B0F7" stroke-width="1.5" stroke-linecap="round" stroke-linejoin="round"/>
    <path fill-rule="evenodd" clip-rule="evenodd" d="M17.7143 10.1615C14.248 10.1615 11.4286 12.9809 11.4286 16.4472C11.4286 19.9135 14.248 22.7329 17.7143 22.7329C21.1806 22.7329 24 19.9135 24 16.4472C24 12.9809 21.1806 10.1615 17.7143 10.1615Z" fill="#555555"/>
    <path d="M18.5 18.8043L20.8571 16.4472L18.5 14.09" stroke="white" stroke-width="1.57143" stroke-linecap="round" stroke-linejoin="round"/>
    <path d="M14.5714 16.4472H20.0714" stroke="white" stroke-width="1.57143" stroke-linecap="round" stroke-linejoin="round"/>
</svg>
