<?xml version="1.0" encoding="UTF-8"?>
<svg width="32px" height="32px" viewBox="0 0 32 32" version="1.1" xmlns="http://www.w3.org/2000/svg" xmlns:xlink="http://www.w3.org/1999/xlink">
    <!-- Generator: Sketch 59 (86127) - https://sketch.com -->
    <title>MFDownloadtodevice</title>
    <desc>Created with Sketch.</desc>
    <g id="MFDownloadtodevice" stroke="none" stroke-width="1" fill="none" fill-rule="evenodd">
        <polygon id="Bounds" points="0 0 32 0 32 32 0 32"></polygon>
        <g id="icon" transform="translate(2.000000, 2.000000)">
            <g id="Entity-icons">
                <path d="M13,1 C6.37179718,1 1,6.37179718 1,13 C1,19.6282028 6.37179718,25 13,25 C19.6276113,25 25,19.6277111 25,13 C25,6.37228894 19.6276113,1 13,1 Z" id="Stroke-2175" stroke="#48B0F7" stroke-width="2" fill="#FFFFFF" fill-rule="nonzero"></path>
                <g id="icon_hybrid_phone" transform="translate(8.000000, 5.000000)">
                    <g id="Group-678">
                        <path d="M10,14.6086957 C10,15.3766957 9.31153846,16 8.46153846,16 L1.53846154,16 C0.688461538,16 0,15.3766957 0,14.6086957 L0,1.39130435 C0,0.623304348 0.688461538,0 1.53846154,0 L8.46153846,0 C9.31153846,0 10,0.623304348 10,1.39130435 L10,14.6086957 L10,14.6086957 Z" id="Stroke-5155" stroke="#48B0F7" stroke-width="2" stroke-linecap="round" stroke-linejoin="round"></path>
                        <line x1="9.375" y1="12.3076923" x2="-4.4408921e-16" y2="12.3076923" id="Stroke-5156" stroke="#48B0F7" stroke-width="2" stroke-linecap="round" stroke-linejoin="round"></line>
                        <line x1="9.375" y1="3.69230769" x2="0" y2="3.69230769" id="Stroke-5157" stroke="#48B0F7" stroke-width="2" stroke-linecap="round" stroke-linejoin="round"></line>
                        <path d="M4.375,14.1538462 C4.375,13.8141538 4.655,13.5384615 5,13.5384615 C5.345,13.5384615 5.625,13.8141538 5.625,14.1538462 C5.625,14.4935385 5.345,14.7692308 5,14.7692308 C4.655,14.7692308 4.375,14.4935385 4.375,14.1538462 Z" id="Stroke-5159" fill="#48B0F7"></path>
                    </g>
                </g>
            </g>
        </g>
        <g id="SmallDownload" transform="translate(14.000000, 14.000000)">
            <path d="M8,0 C3.58836364,0 0,3.58836364 0,8 C0,12.4116364 3.58836364,16 8,16 C12.4116364,16 16,12.4116364 16,8 C16,3.58836364 12.4116364,0 8,0" id="Fill-4864" fill="#555555"></path>
            <g id="Group" transform="translate(8.000000, 8.000000) rotate(-180.000000) translate(-8.000000, -8.000000) translate(5.000000, 4.000000)" stroke="#FFFFFF" stroke-linecap="round" stroke-linejoin="round" stroke-width="2">
                <g id="Group-7" transform="translate(3.000000, 4.000000) rotate(-180.000000) translate(-3.000000, -4.000000) translate(0.000000, -0.000000)">
                    <polyline id="Stroke-572" points="0 5 3 8 6 5"></polyline>
                    <line x1="3" y1="2.13162821e-14" x2="3" y2="7" id="Stroke-574"></line>
                </g>
            </g>
        </g>
    </g>
</svg>