<?xml version="1.0" encoding="UTF-8" standalone="no"?>
<svg width="24px" height="22px" viewBox="0 0 24 22" version="1.1" xmlns="http://www.w3.org/2000/svg" xmlns:xlink="http://www.w3.org/1999/xlink">
    <!-- Generator: sketchtool 40.2 (33826) - http://www.bohemiancoding.com/sketch -->
    <title>B94BAEFF-25C8-4601-BD29-E4D4B6E5802B</title>
    <desc>Created with sketchtool.</desc>
    <defs>
        <path d="M10,0 C4.47654802,0 0,4.47654802 0,10 C0,15.523452 4.47654802,20 10,20 C15.5229009,20 20,15.5231698 20,10 C20,4.47683022 15.5229009,0 10,0 Z" id="path-1"></path>
        <mask id="mask-2" maskContentUnits="userSpaceOnUse" maskUnits="objectBoundingBox" x="0" y="0" width="20" height="20" fill="white">
            <use xlink:href="#path-1"></use>
        </mask>
    </defs>
    <g id="Page-1" stroke="none" stroke-width="1" fill="none" fill-rule="evenodd">
        <g id="Microflow-Rendering-Copy" transform="translate(-999.000000, -151.000000)">
            <g id="Activities" transform="translate(440.000000, 50.000000)">
                <g id="Entity-Activities">
                    <g id="Create-Object-Activity" transform="translate(539.000000, 81.000000)">
                        <g id="icon" transform="translate(20.000000, 20.000000)">
                            <g id="Entity-icons">
                                <use id="Stroke-2175" stroke="#0595DB" mask="url(#mask-2)" stroke-width="2" fill="#FFFFFF" xlink:href="#path-1"></use>
                                <path d="M8.33333333,9.16666667 L8.33333333,5.83333333 L7.5,5.83333333 L7.5,14.1666667 L8.33333333,14.1666667 L8.33333333,10 L10,10 L10,9.16666667 L8.33333333,9.16666667 Z M11.6666667,12.5 L12.5,12.5 L12.5,14.1666667 L11.6666667,14.1666667 L11.6666667,12.5 Z M12.5,15 L7.5,15 L7.5,14.1666667 L12.5,14.1666667 L12.5,15 Z M10.8333333,8.33333333 L10.8333333,10.8333333 L10,10.8333333 L10,8.33333333 L10.8333333,8.33333333 Z M11.6666667,5.83333333 L12.5,5.83333333 L12.5,7.5 L11.6666667,7.5 L11.6666667,5.83333333 Z M12.5,5 L12.5,5.83333333 L7.5,5.83333333 L7.5,5 L12.5,5 Z" id="Combined-Shape" fill="#0595DB"></path>
                            </g>
                            <path d="M17.5,9 C13.916,9 11,11.916 11,15.5 C11,19.084 13.916,22 17.5,22 C21.084,22 24,19.084 24,15.5 C24,11.916 21.084,9 17.5,9" id="Fill-4834" fill="#888888"></path>
                            <path d="M20.02,16.687 L17.485,19.223 L14.95,16.687 C14.754,16.492 14.754,16.175 14.95,15.98 C15.145,15.785 15.461,15.785 15.657,15.98 L17,17.324 L17,12.773 C17,12.497 17.224,12.273 17.5,12.273 C17.776,12.273 18,12.497 18,12.773 L18,17.293 L19.313,15.98 C19.508,15.785 19.825,15.785 20.02,15.98 C20.215,16.175 20.215,16.492 20.02,16.687" id="Path" fill="#FFFFFF"></path>
                        </g>
                    </g>
                </g>
            </g>
        </g>
    </g>
</svg>