<?xml version="1.0" encoding="UTF-8"?>
<svg width="24px" height="22px" viewBox="0 0 24 22" version="1.1" xmlns="http://www.w3.org/2000/svg" xmlns:xlink="http://www.w3.org/1999/xlink">
    <title>404EE5B2-D86D-40D6-87A3-73F862072DCD</title>
    <desc>Created with sketchtool.</desc>
    <defs>
        <path d="M10,0 C4.47654802,0 0,4.47654802 0,10 C0,15.523452 4.47654802,20 10,20 C15.5229009,20 20,15.5231698 20,10 C20,4.47683022 15.5229009,0 10,0 Z" id="path-1"></path>
        <mask id="mask-2" maskContentUnits="userSpaceOnUse" maskUnits="objectBoundingBox" x="0" y="0" width="20" height="20" fill="white">
            <use xlink:href="#path-1"></use>
        </mask>
    </defs>
    <g id="Page-1" stroke="none" stroke-width="1" fill="none" fill-rule="evenodd">
        <g id="Microflow-Rendering-Copy" transform="translate(-1287.000000, -151.000000)">
            <g id="Activities" transform="translate(448.000000, 50.000000)">
                <g id="Entity-Activities">
                    <g id="Cast-Object-Activity" transform="translate(819.000000, 81.000000)">
                        <g id="icon" transform="translate(20.000000, 20.000000)">
                            <g id="Entity-icons">
                                <use id="Stroke-2175" stroke="#0595DB" mask="url(#mask-2)" stroke-width="2" fill="#FFFFFF" xlink:href="#path-1"></use>
                                <path d="M8.33333333,9.16666667 L8.33333333,5.83333333 L7.5,5.83333333 L7.5,14.1666667 L8.33333333,14.1666667 L8.33333333,10 L10,10 L10,9.16666667 L8.33333333,9.16666667 Z M11.6666667,12.5 L12.5,12.5 L12.5,14.1666667 L11.6666667,14.1666667 L11.6666667,12.5 Z M12.5,15 L7.5,15 L7.5,14.1666667 L12.5,14.1666667 L12.5,15 Z M10.8333333,8.33333333 L10.8333333,10.8333333 L10,10.8333333 L10,8.33333333 L10.8333333,8.33333333 Z M11.6666667,5.83333333 L12.5,5.83333333 L12.5,7.5 L11.6666667,7.5 L11.6666667,5.83333333 Z M12.5,5 L12.5,5.83333333 L7.5,5.83333333 L7.5,5 L12.5,5 Z" id="Combined-Shape" fill="#0595DB"></path>
                            </g>
                            <path d="M17.5,9 C13.9153913,9 11,11.9153913 11,15.5 C11,19.0846087 13.9153913,22 17.5,22 C21.0834783,22 24,19.0846087 24,15.5 C24,11.9153913 21.0834783,9 17.5,9 L17.5,9 Z" id="Fill-4920" fill="#888888"></path>
                            <path d="M21.6758261,14.5244348 C21.6701739,14.5470435 21.6543478,14.5651304 21.6464348,14.5854783 C21.6328696,14.6216522 21.6181739,14.6566957 21.5978261,14.6894783 C21.5786087,14.7177391 21.556,14.7426087 21.5311304,14.7674783 C21.5051304,14.7957391 21.4802609,14.8217391 21.4486087,14.8432174 C21.4361739,14.8511304 21.4293913,14.8635652 21.4169565,14.8714783 C21.3796522,14.8929565 21.340087,14.9076522 21.3005217,14.9212174 C21.2948696,14.9223478 21.2914783,14.9257391 21.2869565,14.928 L21.2824348,14.928 C21.2326957,14.9426957 21.1806957,14.9506087 21.1286957,14.9506087 C21.114,14.9506087 21.0993043,14.946087 21.0846087,14.9449565 C21.0676522,14.9438261 21.0529565,14.9415652 21.036,14.9393043 C21.0201739,14.935913 21.0043478,14.9370435 20.9885217,14.9325217 L18.8045217,14.3774783 C18.5015652,14.2994783 18.3195652,13.992 18.3964348,13.6901739 C18.4733043,13.3872174 18.7796522,13.204087 19.0837391,13.2809565 L20.0875652,13.5364348 C19.7902609,13.115913 19.4115652,12.7564348 18.9469565,12.5009565 C18.1454783,12.0612174 17.2207826,11.9606087 16.3458261,12.216087 C15.4686087,12.4715652 14.7428696,13.0537391 14.3031304,13.8552174 C13.8633913,14.6555652 13.7616522,15.5802609 14.0171304,16.4563478 C14.2726087,17.3346957 14.8547826,18.0593043 15.6551304,18.4990435 C16.4566087,18.9387826 17.3801739,19.0405217 18.2585217,18.7850435 C18.5592174,18.6957391 18.8723478,18.8698261 18.9593913,19.1682609 C19.0464348,19.4689565 18.8734783,19.782087 18.573913,19.8702609 C18.1522609,19.9923478 17.7226957,20.0533913 17.2953913,20.0533913 C16.5402609,20.0533913 15.791913,19.8634783 15.1113913,19.4904348 C14.0453913,18.9048696 13.2721739,17.9406087 12.931913,16.7728696 C12.5916522,15.6062609 12.7261739,14.3763478 13.3117391,13.3103478 C13.8973043,12.2454783 14.8626957,11.4711304 16.0293043,11.1308696 C17.1947826,10.7906087 18.4246957,10.9251304 19.4906957,11.5106957 C20.074,11.8306087 20.5668696,12.268087 20.9523478,12.7869565 L21.1366087,12.060087 C21.2134783,11.7571304 21.5209565,11.5751304 21.823913,11.652 C22.1268696,11.7288696 22.31,12.0363478 22.232,12.3393043 L21.6758261,14.5244348 Z" id="Path" fill="#FFFFFF" transform="translate(17.498946, 15.500132) scale(-1, 1) translate(-17.498946, -15.500132) "></path>
                        </g>
                    </g>
                </g>
            </g>
        </g>
    </g>
</svg>