<svg width="24" height="22" viewBox="0 0 24 22" fill="none" xmlns="http://www.w3.org/2000/svg">
<mask id="path-1-inside-1" fill="white">
<path fill-rule="evenodd" clip-rule="evenodd" d="M0 10C0 4.47655 4.47655 0 10 0C15.5229 0 20 4.47683 20 10C20 15.5232 15.5229 20 10 20C4.47655 20 0 15.5235 0 10Z"/>
</mask>
<path fill-rule="evenodd" clip-rule="evenodd" d="M0 10C0 4.47655 4.47655 0 10 0C15.5229 0 20 4.47683 20 10C20 15.5232 15.5229 20 10 20C4.47655 20 0 15.5235 0 10Z" fill="white"/>
<path d="M10 -1C3.92426 -1 -1 3.92426 -1 10H1C1 5.02883 5.02883 1 10 1V-1ZM21 10C21 3.92453 16.0752 -1 10 -1V1C14.9706 1 19 5.02913 19 10H21ZM10 21C16.0752 21 21 16.0755 21 10H19C19 14.9709 14.9706 19 10 19V21ZM-1 10C-1 16.0757 3.92426 21 10 21V19C5.02883 19 1 14.9712 1 10H-1Z" fill="#5B47EC" mask="url(#path-1-inside-1)"/>
<path fill-rule="evenodd" clip-rule="evenodd" d="M12.5 5.83333V5H7.5V5.83333V9.16667V10V14.1667V15H12.5V14.1667V12.5H11.6667V14.1667L8.33333 14.1667V10H10V10.8333H10.8333V8.33333H10V9.16667H8.33333V5.83333H11.6667V7.5H12.5V5.83333Z" fill="#5B47EC"/>
<path fill-rule="evenodd" clip-rule="evenodd" d="M24 15.5C24 11.9158 21.0842 9 17.5 9C13.9163 9 11 11.9158 11 15.5C11 19.0837 13.9163 22 17.5 22C21.0842 22 24 19.0837 24 15.5Z" fill="#888888"/>
<path fill-rule="evenodd" clip-rule="evenodd" d="M18.464 13.1463L21 15.6813L18.464 18.2163C18.269 18.4123 17.952 18.4123 17.757 18.2163C17.562 18.0213 17.562 17.7053 17.757 17.5093L19.101 16.1663H14.55C14.274 16.1663 14.05 15.9423 14.05 15.6663C14.05 15.3903 14.274 15.1663 14.55 15.1663H19.07L17.757 13.8533C17.562 13.6583 17.562 13.3413 17.757 13.1463C17.952 12.9513 18.269 12.9513 18.464 13.1463Z" fill="white"/>
</svg>
