<svg width="24" height="23" viewBox="0 0 24 23" fill="none" xmlns="http://www.w3.org/2000/svg">
    <g clip-path="url(#clip0_429_400)">
        <path d="M1.81481 10.8255C1.81481 5.42474 6.19183 1.04772 11.5926 1.04772C16.9928 1.04772 21.3704 5.42506 21.3704 10.8255C21.3704 16.2259 16.9928 20.6033 11.5926 20.6033C6.19183 20.6033 1.81481 16.2263 1.81481 10.8255Z" fill="white" stroke="#48B0F7" stroke-width="1.62963"/>
        <path fill-rule="evenodd" clip-rule="evenodd" d="M9.05585 5.80084C9.05585 5.57584 9.23825 5.39343 9.46325 5.39343H13.7184C13.9434 5.39343 14.1258 5.57584 14.1258 5.80084V7.15886C14.1258 7.38387 13.9434 7.56627 13.7184 7.56627H9.46325C9.23825 7.56627 9.05585 7.38387 9.05585 7.15886V5.80084Z" stroke="#48B0F7" stroke-width="1.5" stroke-linecap="round" stroke-linejoin="round"/>
        <path d="M11.5908 7.56628V14.0848" stroke="#48B0F7" stroke-width="1.5" stroke-linecap="round" stroke-linejoin="round"/>
        <path d="M7.96948 14.0847V11.9119C7.96948 11.5119 8.29375 11.1876 8.69376 11.1876H14.488C14.888 11.1876 15.2123 11.5119 15.2123 11.9119V14.0847" stroke="#48B0F7" stroke-width="1.5" stroke-linecap="round" stroke-linejoin="round"/>
        <path fill-rule="evenodd" clip-rule="evenodd" d="M7.96942 16.2576C8.56943 16.2576 9.05584 15.7711 9.05584 15.1711C9.05584 14.5711 8.56943 14.0847 7.96942 14.0847C7.3694 14.0847 6.883 14.5711 6.883 15.1711C6.883 15.7711 7.3694 16.2576 7.96942 16.2576Z" stroke="#48B0F7" stroke-width="1.5" stroke-linecap="round" stroke-linejoin="round"/>
        <path fill-rule="evenodd" clip-rule="evenodd" d="M11.5908 16.2576C12.1908 16.2576 12.6772 15.7711 12.6772 15.1711C12.6772 14.5711 12.1908 14.0847 11.5908 14.0847C10.9908 14.0847 10.5044 14.5711 10.5044 15.1711C10.5044 15.7711 10.9908 16.2576 11.5908 16.2576Z" stroke="#48B0F7" stroke-width="1.5" stroke-linecap="round" stroke-linejoin="round"/>
        <path fill-rule="evenodd" clip-rule="evenodd" d="M15.2123 16.2576C15.8123 16.2576 16.2987 15.7711 16.2987 15.1711C16.2987 14.5711 15.8123 14.0847 15.2123 14.0847C14.6123 14.0847 14.1259 14.5711 14.1259 15.1711C14.1259 15.7711 14.6123 16.2576 15.2123 16.2576Z" stroke="#48B0F7" stroke-width="1.5" stroke-linecap="round" stroke-linejoin="round"/>
        <path fill-rule="evenodd" clip-rule="evenodd" d="M17.4815 9.19592C13.8873 9.19592 10.963 12.1202 10.963 15.7144C10.963 19.3087 13.8873 22.233 17.4815 22.233C21.0757 22.233 24 19.3087 24 15.7144C24 12.1202 21.0757 9.19592 17.4815 9.19592Z" fill="#555555"/>
        <path fill-rule="evenodd" clip-rule="evenodd" d="M14.2402 18.6662L15.1169 16.6196L16.5759 18.0786L14.5293 18.9558C14.5016 18.9677 14.472 18.9739 14.4425 18.9739C14.3852 18.9739 14.3288 18.9514 14.2869 18.9091C14.223 18.8456 14.2045 18.7491 14.2402 18.6662Z" fill="white"/>
        <path fill-rule="evenodd" clip-rule="evenodd" d="M16.9292 17.8089L15.379 16.2582L18.1541 13.483C18.1568 13.4857 18.1577 13.4896 18.1603 13.4923L19.711 15.043L16.9354 17.8181C16.9332 17.8155 16.9323 17.8115 16.9292 17.8089Z" fill="white"/>
        <path fill-rule="evenodd" clip-rule="evenodd" d="M18.472 13.1806C18.4694 13.178 18.4654 13.1771 18.4628 13.1744L19.1178 12.5194C19.1592 12.478 19.2152 12.4551 19.2734 12.4551C19.332 12.4551 19.388 12.478 19.4294 12.5194L20.6759 13.7664C20.7623 13.8524 20.7623 13.9917 20.6759 14.078L20.0227 14.7313L18.472 13.1806Z" fill="white"/>
    </g>
    <defs>
        <clipPath id="clip0_429_400">
            <rect width="24" height="22" fill="white" transform="translate(0 0.23291)"/>
        </clipPath>
    </defs>
</svg>
