<svg width="24" height="23" viewBox="0 0 24 23" fill="none" xmlns="http://www.w3.org/2000/svg">
  <g clip-path="url(#clip0_429_339)">
    <path d="M2 11.7329C2 6.2094 6.47649 1.73291 12 1.73291C17.5229 1.73291 22 6.20973 22 11.7329C22 17.2561 17.5229 21.7329 12 21.7329C6.47649 21.7329 2 17.2564 2 11.7329Z" fill="white" stroke="#48B0F7" stroke-width="2"/>
    <path fill-rule="evenodd" clip-rule="evenodd" d="M9.36572 6.59192C9.36572 6.31578 9.58958 6.09192 9.86572 6.09192H14.1307C14.4068 6.09192 14.6307 6.31578 14.6307 6.59192V7.84833C14.6307 8.12447 14.4068 8.34833 14.1307 8.34833H9.86572C9.58958 8.34833 9.36572 8.12447 9.36572 7.84833V6.59192Z" stroke="#48B0F7" stroke-width="1.5" stroke-linecap="round" stroke-linejoin="round"/>
    <path d="M11.9982 8.34827V15.1175" stroke="#48B0F7" stroke-width="1.5" stroke-linecap="round" stroke-linejoin="round"/>
    <path d="M8.23755 15.1176V12.8611C8.23755 12.4458 8.57429 12.109 8.98969 12.109H15.0068C15.4222 12.109 15.7589 12.4458 15.7589 12.8611V15.1176" stroke="#48B0F7" stroke-width="1.5" stroke-linecap="round" stroke-linejoin="round"/>
    <path fill-rule="evenodd" clip-rule="evenodd" d="M8.23746 17.3738C8.86055 17.3738 9.36566 16.8687 9.36566 16.2456C9.36566 15.6225 8.86055 15.1174 8.23746 15.1174C7.61437 15.1174 7.10925 15.6225 7.10925 16.2456C7.10925 16.8687 7.61437 17.3738 8.23746 17.3738Z" stroke="#48B0F7" stroke-width="1.5" stroke-linecap="round" stroke-linejoin="round"/>
    <path fill-rule="evenodd" clip-rule="evenodd" d="M11.9982 17.3738C12.6213 17.3738 13.1264 16.8687 13.1264 16.2456C13.1264 15.6225 12.6213 15.1174 11.9982 15.1174C11.3751 15.1174 10.87 15.6225 10.87 16.2456C10.87 16.8687 11.3751 17.3738 11.9982 17.3738Z" stroke="#48B0F7" stroke-width="1.5" stroke-linecap="round" stroke-linejoin="round"/>
    <path fill-rule="evenodd" clip-rule="evenodd" d="M15.7588 17.3738C16.3819 17.3738 16.887 16.8687 16.887 16.2456C16.887 15.6225 16.3819 15.1174 15.7588 15.1174C15.1357 15.1174 14.6306 15.6225 14.6306 16.2456C14.6306 16.8687 15.1357 17.3738 15.7588 17.3738Z" stroke="#48B0F7" stroke-width="1.5" stroke-linecap="round" stroke-linejoin="round"/>
  </g>
  <defs>
    <clipPath id="clip0_429_339">
      <rect width="24" height="22" fill="white" transform="translate(0 0.73291)"/>
    </clipPath>
  </defs>
</svg>
